<svg xmlns="http://www.w3.org/2000/svg" width="140" height="200" viewBox="0 0 140 200"><g><g><g><path fill-opacity=".4" d="M70 200c-38.66 0-70-3.597-70-8 0-3.379 17.821-6.247 43.164-7.455a5.199 5.199 0 0 0-.356 1.022s-6.36.485-7.668 3.09c-.194.343.09.835.486.835.03 0 .06-.003.09-.008.662-.111 1.64-.242 2.58-.242.508 0 1.005.038 1.436.138.116.027.268.058.334.095.492.17.857.447.934.88a.56.56 0 0 1 .094.353c0 .035.002.07.008.104a.548.548 0 0 0 .528.477.532.532 0 0 0 .108-.012l.838-.18L48 189.942l5.51-5.784C55.94 184.09 58.426 184 61 184a74.2 74.2 0 0 0 5.147 1.176c.286.055.573.108.853.16 4 .729 8.118 1.134 12.196 1.134a59.173 59.173 0 0 0 2.178-.04 57.583 57.583 0 0 0 3.817-.26 151.689 151.689 0 0 0 11.661-1.624c1.512.072 2.997.15 4.453.233-1.493 1.393-2.57 3.05-2.437 4.889.022.332.259.51.522.51a.5.5 0 0 0 .187-.036c.423-.142 1.12-.43 1.845-.636.16-.046.325-.09.49-.13.606-.15 1.226-.254 1.775-.254.166 0 .313.01.476.03.097.014.19.032.28.055.557.143.936.483 1 1.125.029.292.267.481.557.481a.49.49 0 0 0 .263-.101c.926-.712 2.354-1.712 3.51-2.163.438-.187.837-.301 1.154-.301.073 0 .187.01.268.033l.665-2.753C128.942 187 140 189.332 140 192c0 4.403-31.34 8-70 8"/></g><g><path fill="#fad473" d="M118 60.138c.131 1.16.279 2.32.42 3.482.108.876.218 1.753.298 2.632.167 1.82.282 3.641.461 5.464.053.718.024 1.44.033 2.161-.212.186-.439.22-.676.284-1.122.307-2.167.839-3.17 1.373-1.808 1.052-2.645 2.686-2.923 4.702a8.883 8.883 0 0 0 .05 2.582c.409 2.66-.347 4.884-2.306 6.72-.617.578-1.187 1.187-1.796 1.793-1.863 1.915-1.391 4.527 1.044 5.669.7.306 1.439.492 2.214.497 1.402.008 2.804.033 4.2-.132.329-.04.655-.092.972-.182 1.072-.306 1.583-1.009 1.616-2.117.01-.333-.194-.754.258-.982.012 1.23.065 2.46-.07 3.689-.03.284-.017.574-.016.86a28.799 28.799 0 0 1-.16 3.009c-.328.257-.716.165-1.076.153-2.85-.087-4.705 1.373-5.89 3.82-.483.982-.425 2.005.142 2.966.375.552.618 1.12.872 1.707.503 1.133.232 2.125-.568 3.026-.708.797-1.627 1.252-2.588 1.686a30.317 30.317 0 0 0-4.826 2.323 10.166 10.166 0 0 0-2.253 1.818c-1.167 1.25-.95 2.756.57 3.53 2.025 1.032 4.168 1.56 6.454 1.83 1.87.225 3.714.317 5.568-.321.146-.04.243-.048.363.007-.217 1.23-.391 2.458-.583 3.687-.022.126-.05.282-.128.406-.295.24-.625.144-.95.096-2.153-.325-4.273-.325-6.314.624-1.064.439-2.005 1.106-2.923 1.81-1.218.932-2.478 1.785-3.973 2.19-1.091.357-2.212.54-3.346.773-.91.227-1.813.476-2.65.945-.513.282-.952.656-1.253 1.169-.364.619-.28 1.244.237 1.743.56.538 1.255.757 2.005.879 1.661.272 3.332.06 4.985-.201 1.345-.213 2.676-.308 4.057-.418 2.041-.096 3.824.575 5.356 1.88.865.735 1.686 1.509 2.786 1.887.002 1.074-.163 2.135-.267 3.2-.132 1.355-.188 2.712-.256 4.071-.068 1.977-.2 3.95-.308 5.926-.011.206-.012.412-.012.619-.001 4.584 0 9.168-.004 13.751 0 .908-.062 1.776-.013 2.724.105 1.894.184 3.789.284 5.682.053 1.28.107 2.56.053 3.835-.094 2.179-.183 4.365-.939 6.455a8.816 8.816 0 0 1-1.169 2.24c-.673.918-1.592 1.368-2.723 1.3-1.627-.1-2.881-.784-3.526-2.372a10.142 10.142 0 0 1-.565-1.892 23.109 23.109 0 0 1-.424-5.348c.071-1.751.177-3.501.198-5.253.03-2.498.04-4.997-.018-7.494-.04-1.75-.206-3.496-.317-5.243-.05-.786.035-1.566.093-2.347.136-1.827.23-3.657.475-5.511.097-.679.117-1.402.149-2.123.085-1.877.19-3.877.222-5.746a12.23 12.23 0 0 0-.34-3 5.018 5.018 0 0 0-.593-1.424c-.589-1.001-1.673-1.258-2.644-.64-.517.33-.879.763-1.174 1.321-.705 1.404-1.024 2.91-1.285 4.436-.251 1.48-.528 2.96-.693 4.45-.156 1.412-.343 2.82-.441 4.24-.166 2.392-.162 4.786-.079 7.177.075 2.143.118 4.309.213 6.43.046 1.05.065 2.103.081 3.152a59.117 59.117 0 0 1-.17 5.252c-.071.966-.078 1.935-.138 2.903-.105 1.709-.193 3.415-.645 5.078-.279 1.083-.683 2.12-1.548 2.94-.296.345-.684.554-1.173.68-.324.055-.642.156-.967.195-.774.095-1.455-.13-2.08-.602-1.329-1.004-2.101-2.36-2.516-3.936a21.201 21.201 0 0 1-.531-3.349c-.185-2.434-.116-4.827-.067-7.24.023-1.194.205-2.294.334-3.442.073-1.025.162-2.05.257-3.076.112-1.21.229-2.418.341-3.676.054-.526.053-1.102.122-1.678.096-.796.108-1.603.154-2.405.126-1.504.126-3.01.126-4.514.07-.824.133-1.65.102-2.472-.102-2.418-.418-4.801-1.218-7.097-.354-1.015-.782-1.985-1.566-2.776-.677-.683-1.494-1.058-2.318-1.412-.145-.036-.25-.041-.316-.134.044-.398.316-.635.554-.95 1.459-2.43 3.594-4.236 5.654-6.11 2.108-1.91 3.892-4.041 4.96-6.712.148-.366.262-.74.293-1.135.098-1.241-.453-2.105-1.618-2.548-2.023-.769-3.934-.427-5.767.596-1.087.606-2.045 1.347-2.996 2.188-.956.798-1.955 1.555-3.11 2.008-1.78.7-3.6.579-5.393-.036-.664-.229-1.26-.585-1.938-.813-2.378-.85-4.11.587-4.531 2.344-.205.859.056 1.656.448 2.381.637 1.204 1.383 2.346 1.975 3.577.445.924.7 1.894.912 2.884.044.207.058.412-.127.585-1.11.066-2.234-.15-3.372-.127-1.795.037-3.628-.025-5.387.026-1.79.051-3.578.161-5.364.33-1.582.145-3.148.349-4.682.768-.918.232-1.806.58-2.613 1.097-1.312.84-2.014 2.135-2.333 3.576-.249 1.172-.312 2.366-.375 3.559-.089 1.69-.116 3.38-.163 5.071-.051 1.813-.15 3.625-.253 5.435-.064 1.135-.043 2.27-.115 3.4a35.942 35.942 0 0 0-.068 3.278c.02.741.12 1.482.072 2.224-.221 3.362-.073 6.727-.103 10.09-.016 1.797.02 3.594-.019 5.39-.021.985-.125 1.972-.468 2.915-.343.945-.927 1.697-1.757 2.197-.89.618-1.767.661-2.667.05-1.333-.882-2.173-2.05-2.617-3.568-.428-1.482-.641-2.93-.79-4.43-.27-2.737-.272-5.48-.205-8.223.057-2.309.11-4.62.28-6.924.112-2.094.334-4.184.525-6.275.115-1.25.215-2.504.304-3.758.17-2.367.17-4.737.268-7.108.02-.843.11-1.69.064-2.532-.067-1.232-.162-2.386-.454-3.546-.354-1.206-1.314-1.974-2.558-2.068-.524-.04-.82.178-1.015.615-.261.584-.47 1.189-.638 1.767-.32 1.217-.428 2.424-.497 3.639-.193 2.361-.081 4.745-.156 7.116-.056 1.772-.207 3.541-.22 5.313-.029 3.932-.26 7.801-.105 11.7.118 3.013.029 6.027.142 9.037.05 1.325-.038 2.638-.078 3.953-.037 1.242-.162 2.467-.479 3.668-.175.662-.392 1.3-.941 1.772-1.381 1.183-2.858.981-4.077-.11-1.575-1.407-2.523-3.179-2.904-5.26-.253-1.383-.345-2.775-.39-4.179-.124-3.941-.108-7.883-.09-11.825.013-2.744.215-5.481.298-8.224 0-1.111 0-2.227.086-3.338.191-3.115-.017-6.262.124-9.347.063-1.397.182-2.794.305-4.189.11-1.252.287-2.495.425-3.726.06-.463.06-.915.216-1.347.311.21.646.199 1.007.162.96-.099 1.837-.393 2.712-.815 1.196-.597 2.412-.77 3.71-.304.736.304 1.49.487 2.25.688.58.155 1.165.256 1.771.242 1.309-.033 2.165-.838 2.263-2.147l.006-.123c.065-1.489.368-1.836 1.83-2.14 1.295-.216 2.545-.216 3.808-.43.487-.081 1.02-.164 1.487-.382.927-.404 1.146-1.23.51-2.015-.704-.871-1.662-1.389-2.664-1.869-1.711-.763-3.5-1.206-5.395-1.219a13.224 13.224 0 0 1-2.706-.301c-1.745-.274-2.382-1.143-2.45-2.86-.092-2.314.416-4.507 1.186-6.66.104-.293.212-.582.264-.89.184-1.074-.21-1.59-1.283-1.867-.293-.063-.633.032-.873-.232.279-.491.711-.903 1.09-1.333.503-.571 1.053-1.101 1.614-1.682-.197-.054-.293.085-.37.155-2.75 2-5.383 4.147-7.923 6.369-2.202 2-3.901 4.334-5.465 6.79-.653 1.026-1.219 2.104-1.783 3.21-.963 1.808-1.534 3.788-2.115 5.763-.377 1.237-.637 2.597-.914 3.903-.237 1.082-.612 2.135-.926 3.2-.029.134-.057.2-.16.251-.179-.206-.45-.29-.637-.485.584-1.933 1-3.903 1.482-5.869a37.554 37.554 0 0 1 1.897-5.876c.471-1.143.91-2.3 1.427-3.426.84-1.83 1.92-3.461 3.194-5.08.447-.598 1-1.17 1.468-1.734 1.733-1.898 3.684-3.546 5.792-5.011 1.74-1.213 3.506-2.404 5.219-3.636 1.14-.861 2.369-1.511 3.663-2.056.131-.055.274-.082.411-.121.242.081.338.294.447.498.868 1.87 1.211 3.825 1 5.894-.1 1.332-.163 2.679.103 4.006.629 3.14 4.27 3.541 6.022 2.266 1.58-1.15 2.098-2.747 2.153-4.57.031-1.036.105-2.049.431-3.045.438-1.335 1.355-2.131 2.654-2.545.452-.144.92-.23 1.388-.327 2.407-.382 4.25-1.634 5.66-3.617.24-.383.387-.727.59-1.11.05-.273.134-.507.357-.683.82-.197 1.642-.242 2.497-.36.322-.046.639-.177.975-.12.113.98.044 1.961-.013 2.941-.12 2.054-.585 4.031-1.195 5.949a14.411 14.411 0 0 0-.622 4.754c.064 1.024.258 2.018.874 2.866 1.235 1.7 2.943 2.14 4.924 1.309 1.634-.687 2.618-1.929 3.202-3.57.34-.88.493-1.803.55-2.728.193-3.178 1.901-5.412 4.367-7.203 1.39-1.01 2.937-1.762 4.39-2.666 2.03-1.26 3.958-2.65 5.169-4.762.654-1.18 1.087-2.426 1.235-3.757.05-.453.152-.894.29-1.329.364-.284.734-.568 1.104-.852.977 1.206 2.359 1.454 3.777 1.522 1.687.08 3.384.12 5.049-.27.99-.233 1.95-.537 2.684-1.314.87-.91 1.248-2 .982-3.222-.125-.588-.295-1.16-.476-1.778-.59-1.804-.251-3.533.677-5.19.588-1.05 1.388-1.948 2.054-2.942.518-.773 1.022-1.557 1.278-2.461.542-1.928-.434-3.483-2.408-3.841-.722-.125-1.386-.21-2.092-.171-.202.011-.412.055-.63-.048.184-1.118.383-2.23.55-3.347.137-.915.222-1.835.303-2.754.288-3.246.338-6.54.252-9.815-.036-1.355-.194-2.706-.309-4.057-.15-1.764-.465-3.503-.674-5.257-.036-.306-.122-.601-.122-.916.777-1.399 2-2.273 3.368-3.017 1.388-.772 2.856-1.392 4.165-2.312 1.64-1.152 2.402-3.05 1.953-4.983-.25-1.08-.992-1.839-1.742-2.579a9.39 9.39 0 0 0-1.032-.886c-1.363-.975-1.6-2.36-1.063-3.916.425-1.229 1.112-2.349 1.69-3.508.253-.51.427-1 .49-1.592.171-1.203-.829-2.078-2.01-1.834-.74.152-1.289.62-1.819 1.105-1.412 1.256-2.45 2.792-3.417 4.385-.914 1.504-1.914 2.936-3.242 4.12-.193.172-.34.437-.657.399-.393-2.134-.684-4.282-.624-6.456.477-.672 1.215-1.04 1.832-1.546 1.435-1.176 3.044-2.123 4.43-3.366a5.85 5.85 0 0 0 1.012-1.163c.57-.879.666-1.825.393-2.84-.197-.636-.489-1.212-.787-1.814a4.645 4.645 0 0 1-.497-1.963c-.06-1.833.102-3.67-.095-5.502a.526.526 0 0 1 .13-.4c.335-.296.786-.336 1.187-.533-.323-.627-.665-1.244-.967-1.858-.626-1.142-1.256-2.357-1.888-3.533-.145-.27-.275-.609-.672-.521-.015-.088.028-.165.11-.193.632-.215 1.161-.588 1.636-1.05.116-.085.199-.146.334-.101.435.934.859 1.873 1.307 2.801.6 1.245 1.18 2.455 1.685 3.785.127.325.272.488.66.474 1.531-.056 3.039.196 4.529.496.46.106.47.103.686-.3 1.073-2.252 2.221-4.42 3.566-6.478a.756.756 0 0 0 .136-.403c.213-.036.315.08.427.197.396.41.897.684 1.41.855.14.058.376.053.376.284-.244-.01-.364.11-.472.279-1.252 1.94-2.578 3.834-3.714 5.849-.04.07-.064.15-.093.216.03.045.044.096.071.104.273.097.552.303.816.217.25-.12.255-.44.392-.67.816-1.528 1.945-2.816 3.26-3.924 1.873-1.579 3.949-2.835 6.297-3.598 1.294-.42 2.628-.672 3.964-.928h.37c.444 0 .626.235.626.673 0 .395-.208.71-.392 1.029-1.016 1.764-2.227 3.368-3.826 4.656-1.61 1.298-3.299 2.493-5.159 3.385-.738.35-1.494.664-2.284 1.013.338.386.757.614 1.144.915 1.722 1.497 2.83 3.329 3.322 5.625.363 1.704.157 3.319.028 4.979-.013.164-.027.329-.038.493-.005.082.003.163.07.232.17 0 .319-.058.47-.112 1.34-.485 2.722-.493 4.083-.206 1.906.401 3.218 1.61 4.065 3.318.289.763.501 1.546.765 2.305.291.839.235 1.695.235 2.572-.183.25-.441.333-.697.415-1.838.587-3.725.896-5.65.986-1.253.059-2.505.181-3.76.008-.276-.037-.574-.045-.893.133.205.315.509.317.77.328 3.082.13 6.142-.008 9.137-.842.288-.08.575-.266.888-.075-.491 2.095-1.663 3.655-3.63 4.571-1.165.548-2.366 1.093-3.677 1.21-.856.077-1.713.146-2.584.11-2.147-.086-4.237-.566-6.36-.812-.774-.09-1.544-.285-2.301-.435-.142-.027-.243-.077-.43.043.548 1.607 1.134 3.21 1.556 4.866-1.708 2.259-4.052 3.706-6.447 5.102-1.196.698-2.216 1.583-2.554 3.03-.231.992.204 1.818 1.169 2.148.881.337 1.79.269 2.692.158.717-.089 1.44-.112 2.155-.144 1.166-.051 1.808.58 2.029 1.812.174.972.532 1.351 1.496 1.511.682.17 1.351.136 1.99-.181.215-.107.426-.271.696-.176.196.821.268 1.662.405 2.495z"/></g><g><path fill="#ef9f5e" d="M71.51 142.263c-.11-1.069-.366-2.102-.82-3.077-.539-1.186-1.165-2.27-1.854-3.35a6.464 6.464 0 0 1-.836-1.932c-.1-.79.123-1.514.533-2.176.67-1.082 1.696-1.619 2.945-1.663.522-.065 1.023.128 1.522.33.517.224 1.051.45 1.585.674 1.415.587 2.83.657 4.323.481 1.242-.147 2.208-.802 3.184-1.448 1.135-.75 2.11-1.715 3.242-2.478 1.215-.82 2.5-1.41 3.99-1.624a6.3 6.3 0 0 1 3.252.581c1.265.599 1.604 1.607 1.34 2.936-.198 1.002-.704 1.893-1.21 2.76-1.026 1.723-2.38 3.263-3.88 4.63-1.07.972-2.154 1.928-3.197 2.929a17.693 17.693 0 0 0-2.511 3.049c-.26.393-.514.791-.865 1.115-1.984-.482-3.962-1-5.995-1.25-1.58-.204-3.17-.285-4.749-.487"/></g><g><path fill="#ef9f5e" d="M88.896 98c.104.056.104.125.104.214-.152.567-.124 1.174-.266 1.72-.417 1.61-.921 3.186-2 4.51-1.437 1.763-3.236 3.029-5.149 4.16-1.27.75-2.585 1.447-3.739 2.396-1.366 1-2.588 2.261-3.328 3.908-.405.905-.6 1.854-.704 2.833-.15 1.413-.331 2.812-1.004 4.096-.888 1.693-2.237 2.683-4.073 3.09-1.937.428-3.737-1.108-4.253-2.504-.557-1.423-.554-2.839-.382-4.308.114-.974.286-1.933.518-2.884.177-.73.486-1.418.64-2.156.228-1.075.38-2.207.486-3.33.084-.898.076-1.745.109-2.69.009-.247.076-.493.145-.738 1.28-.21 2.586-.43 3.895-.63 3.105-.471 6.105-1.318 9.04-2.391 3.5-1.296 6.78-2.98 9.802-5.203.05-.036.106-.093.159-.093"/></g><g><path fill="#ef9f5e" d="M34.462 117c.387 0 .774 0 1.166.116 1.275.374 1.316 1.144 1.184 2.062-.053.366-.21.72-.343 1.07-.537 1.414-.875 2.888-1.067 4.375-.137 1.068-.152 2.175.073 3.259.135.654.525 1.118 1.087 1.358.716.363 1.497.462 2.276.514.843.056 1.688.107 2.53.16 1.34.086 2.632.463 3.888.956.994.39 1.888.94 2.744 1.59.212.177.42.39.601.617.818 1.014.275 2.044-.7 2.392-.727.26-1.48.416-2.231.457-.948.074-1.888.155-2.825.284-.365.05-.728.155-1.075.283-.585.216-.77.594-.77 1.245-.052.46 0 .92-.184 1.368-.4 1.078-1.19 1.645-2.302 1.652-1.016.007-1.951-.291-2.897-.58-.69-.178-1.38-.419-2.08-.599-.597-.154-1.138-.054-1.7.102-.703.195-1.328.574-2.003.838-.78.306-1.593.397-2.413.481-.303 0-.421-.13-.421-.405.067-.985.288-1.948.442-2.92.258-1.613.458-3.235.696-4.852.173-1.181.34-2.365.571-3.535.112-.561.096-1.123.153-1.682.138-1.246.464-2.418.985-3.552 1.153-2.513 2.68-4.774 4.427-6.891.053-.063.125-.11.188-.163"/></g><g><path fill="#ef9f5e" d="M114.785 124.367c-.933.387-1.897.633-2.915.633-2.949.08-5.774-.504-8.517-1.524-.664-.247-1.3-.57-1.826-1.101-.608-.615-.596-1.322-.427-2.049.09-.387.349-.722.625-1.04.959-1.11 2.193-1.836 3.455-2.515a31.663 31.663 0 0 1 3.906-1.771c.914-.364 1.702-.82 2.344-1.554.306-.349.519-.736.665-1.16.203-.596.036-1.172-.2-1.713-.236-.573-.509-1.07-.82-1.573-.612-1-.628-2.056-.172-3.116.622-1.441 1.66-2.518 3.022-3.278.666-.372 1.397-.606 2.165-.606H118c0 1-.165 2-.254 3.06-.108 1.22-.304 2.431-.434 3.65-.166 1.564-.446 3.111-.673 4.667-.29 2-.639 3.994-.956 5.986-.282 1.637-.597 3.336-.898 5.004"/></g><g><path fill="#ef9f5e" d="M97 37.294c1.507-1.294 2.704-2.868 3.71-4.59.983-1.704 2.07-3.28 3.527-4.584.583-.521 1.193-.973 2.009-1.12.92-.127 1.754.645 1.895 1.24.2.76.04 1.476-.283 2.157a96.186 96.186 0 0 1-1.54 3.117 4.553 4.553 0 0 0-.49 2.708c.086.713.525 1.24 1.067 1.679.846.685 1.681 1.385 2.304 2.297.935 1.372 1.024 2.802.41 4.365-.54 1.35-1.609 2.163-2.772 2.873-.95.564-1.958 1.03-2.935 1.564-1.298.678-2.437 1.563-3.328 2.76-.071.096-.184.16-.276.24-.245-.923-.298-1.886-.477-2.815-.373-1.553-.755-3.102-1.267-4.613-.635-1.87-1.035-3.794-1.325-5.744L97 37.294"/></g><g><path fill="#ef9f5e" d="M118.47 94.364c-.19.33-.086.69-.09 1.036-.016 1.145-.503 1.855-1.576 2.209-.306.101-.624.19-.942.225-1.577.166-3.163.166-4.742.166-1.043-.101-2.057-.454-2.837-1.192-1.628-1.54-1.71-3.469-.229-5.18.673-.777 1.427-1.481 2.15-2.212 1.007-1.018 1.713-2.21 1.983-3.64.16-.84.128-1.692.018-2.538-.205-1.834-.205-3.62.65-5.325.543-1.128 1.404-1.913 2.444-2.516 1.01-.58 2.063-1.067 3.199-1.342.161-.055.319-.055.502-.055 0 2.368 0 4.736-.1 7.102-.041.747-.022 1.497-.038 2.245-.048 2.201-.062 4.404-.162 6.653-.067 1.421-.01 2.9-.23 4.364"/></g><g><path fill="#ef9f5e" d="M62 107c-.496 2-1.7 3.362-3.368 4.401-.831.517-1.632 1.016-2.632 1.2-.573.104-1.127.158-1.671.295-2.034.514-2.847 1.628-3.217 3.812-.112.71-.112 1.417-.112 2.123-.087 1.274-.388 2.509-1.213 3.495-.849 1.015-1.909 1.674-3.333 1.674-.717 0-1.396-.094-2.048-.428-1.12-.572-1.802-1.487-2.018-2.704-.252-1.425-.189-2.868-.051-4.307.065-.683.074-1.372-.036-2.064-.105-.658-.193-1.317-.37-1.96a10.655 10.655 0 0 0-.931-2.255c1.548-.746 3.209-1.127 4.868-1.509 1.395-.32 2.8-.606 4.218-.773a28.856 28.856 0 0 1 3.032-.361c1.306-.085 2.619-.081 3.882-.16 1.432-.083 2.818-.205 4.193-.422.265-.057.538-.057.807-.057"/></g><g><path fill="#ef9f5e" d="M112 142c-.819 0-1.478-.425-2-1-1-1-2.144-1.82-3.48-2.302-.628-.226-1.269-.384-1.941-.388-1.703-.01-3.382.2-5.062.472-1.265.218-2.517.403-3.835.276-.774-.058-1.567-.058-2.3-.467a3.33 3.33 0 0 1-1.125-.879c-.333-.408-.336-1.18-.047-1.712.553-.917 1.45-1.384 2.41-1.771 1.125-.454 2.316-.646 3.494-.862 1.886-.367 3.595-1.126 5.108-2.367.778-.622 1.637-1.272 2.55-1.774 1.308-.718 2.689-1.226 4.228-1.226 1.114 0 2.255 0 3.377.247.197.05.415.013.623.017 0 .736-.208 1.371-.293 2.06-.18 1.442-.406 2.877-.585 4.319-.122.672-.34 1.297-.433 1.969a178.886 178.886 0 0 0-.572 4.512c-.033.293-.117.584-.117.876"/></g><g><path fill="#ef9f5e" d="M100.671 77.15c.398-.228.833-.15 1.246-.15.8.068 1.592.159 2.346.497 1.24.558 1.968 2.019 1.67 3.404-.232 1.099-.76 2.02-1.34 2.93-.646 1.008-1.416 1.924-2.011 2.973a7.14 7.14 0 0 0-.947 4.02c.033.562.207 1.11.365 1.64.226.536.359 1.167.444 1.762.152 1.053-.196 1.983-.828 2.774-.81 1.067-1.957 1.444-3.15 1.715-1.567.355-3.162.285-4.744.232-.928-.043-1.893-.11-2.722-.657-.227-.145-.455-.29-.663-.443-.195-.152-.337-.334-.337-.628.641-.579 1.284-1.149 1.89-1.765 2.48-2.522 4.374-5.454 5.777-8.756.193-.454.333-.943.71-1.302.122-.117.163-.33.23-.506.864-2.31 1.393-4.713 1.925-7.13.043-.204.093-.407.139-.61"/></g><g><path fill="#ef9f5e" d="M103.46 12.334c.245 1.959.072 3.928.126 5.891.019.667.155 1.305.414 1.908.424.79.798 1.58 1 2.476.058.584 0 1.116-.21 1.631-.287.76-.79 1.433-1.44 2.009-1.35 1.256-2.911 2.225-4.35 3.396-.546.475-1.097.984-1.744 1.355-.062-1.45.04-2.893.181-4.334.1-1.029.179-2.059.286-3.086.158-1.523.387-3.032.851-4.493a9.892 9.892 0 0 1 .685-1.581c.45-.759.741-1.618 1.213-2.403-.724-.35-1.4-.69-2.085-1.006a21.283 21.283 0 0 1-4.172-2.527c-.078-.06-.144-.14-.215-.21 0-.278.218-.267.378-.285 1.25-.142 2.368-.641 3.433-1.312A6.521 6.521 0 0 1 99 9.165c.318-.165.662-.26 1-.068.932.844 1.675 1.834 2.335 2.903.064.097.141.195.19.307.14.32.333.367.608.167.094-.068.217-.095.326-.14"/></g><g><path fill="#ef9f5e" d="M117 58.354c-.68.407-1.378.733-2.194.646-.394-.073-.806-.143-1.138-.335-.497-.266-.774-.665-.833-1.263-.042-.402-.084-.864-.358-1.223-.477-.581-1.058-.7-1.705-.633-.253.026-.507.075-.772.074-.863-.006-1.725.207-2.598.124-.738-.07-1.46-.184-1.976-.831-.36-.453-.497-.913-.426-1.55.25-1.25 1-2.114 1.896-2.844.82-.652 1.758-1.11 2.628-1.682.77-.507 1.476-1.081 2.202-1.674a9.48 9.48 0 0 0 1.865-2.061c.09-.102.192-.102.306-.102.764 2.661 1.397 5.31 2.039 8 .399 1.599.76 3.25 1.064 4.922v.432"/></g><g><path fill="#ef9f5e" d="M16.37 143c.546 0 .546 0 .63.492-.342.508-.504 1.09-.61 1.672a55.653 55.653 0 0 1-.97 4.331c-.603 2.277-1.736 4.27-3.165 6.098-.332.407-.727.79-1.188 1.071-1.327.812-2.799.086-3.014-1.484-.195-1.417.173-2.733.693-4.017.505-1.25 1.254-2.327 2.125-3.351 1.51-1.812 3.198-3.453 5.226-4.675.088-.052.182-.137.274-.137"/></g><g><path fill="#fad473" d="M100 8.836c-.9.035-1.66.456-2.397.876-1.132.645-2.309 1.107-3.603 1.175a.304.304 0 0 0-.239.113c-1.111-.746-1.981-1.72-2.812-2.733-.949-1.186-1.769-2.48-2.55-3.782-.154-.257-.301-.485-.399-.813-.073-.416.105-.672.548-.672.452 0 .898.098 1.328.238 1.367.446 2.696.982 4.006 1.562 1.443.639 2.861 1.321 4.118 2.275.71.54 1.408 1.095 2 1.76"/></g><g><path fill="#ef9f5e" d="M115.667 4.542c-.057-.083-.118-.164-.17-.25-1.254-2.009.052-3.77 1.851-4.192 1.92-.451 4.274.639 4.652 2.957.106.943-.203 1.67-1 2.216-.923.727-2 .904-3.16.572-.84-.255-1.586-.649-2.173-1.303z"/></g><g><path fill="#ef9f5e" d="M103.209 4.608c-.209.197-.409.392-.627.59-.382.324-.827.53-1.298.68-1.669.598-3.574-1.085-3.284-3.054.075-.23.102-.46.155-.688.237-1.03.942-1.656 1.845-1.992 1-.381 2.757.007 3.549 1.021.386.494.523 1.062.451 1.7a4.639 4.639 0 0 1-.791 1.743"/></g><g><path fill="#2b2d2c" d="M131.825 34.905c-3.115.976-6.318 1.198-9.563 1.095-.262-.052-.6-.088-.895-.14-.208-.036-.367-.147-.367-.39 0-.239.223-.313.436-.324.2-.01.401-.002.564.012 2.55.168 5 .016 7.514-.464.847-.165 1.665-.423 2.486-.694 0 .317-.078.611-.175.905"/></g><g><path fill="#ef9f5e" d="M81.831 125c-1.146 0-2.159-.134-3.128-.617-1.112-.554-1.76-1.434-2.094-2.604-.293-1.03-.436-2.085-.609-3.138 0-.373.09-.736.142-1.096.138-.942.546-1.785 1.026-2.618.379-.659.832-1.201 1.384-1.707.948-.901 2.048-1.573 3.24-2.108 2.132-.958 4.392-1.496 6.639-2.112 1.666-.393 3.233-1 4.712-1.92 1.294-.766 2.604-1.513 3.983-2.08 1.11-.515 2.277-.813 3.498-1 1.072-.092 2.023.114 2.973.55.529.243.86.658 1.06 1.157.626 1.56.401 2.808-.729 4.042-.855.933-1.928 1.514-3.091 1.99-1.544.638-3.19.933-4.837 1.375-.826.24-1.679.526-2.468.996-.995.592-1.396 1.508-1.532 2.588-.179.87-.232 1.749-.395 2.617-.429 2.289-1.798 3.786-3.883 4.685-1.353.57-2.785.808-4.254.887-.572.031-1.14.113-1.637.113"/></g><g><path fill="#ef9f5e" d="M58.2 139c-1.065-.17-2.2-.068-3.2-.394-.892-.273-1.598-.746-1.909-1.696-.221-.676-.005-1.276.275-1.91.16-.287.359-.61.577-.91.552-.761.637-1.63.507-2.51-.192-1.295-.45-2.58-.45-3.893-.051-.517-.149-1.032-.135-1.556.005-.19-.011-.395.135-.541.321-.402.352-.912.478-1.39.583-2.2 1.98-3.6 4.152-4.135.916-.226 2.37.14 2.85 1.12.21.433.369.87.393 1.364.05.989-.135 1.952-.298 2.913-.071.42-.041.831-.079 1.245-.037.419.176.69.504.843.454.204.908.45 1.418.381 1.168-.049 2.323.177 3.494.142.5-.015 1.004.138 1.461.404.627.356.78.881.486 1.523-.304.675-.859 1-1.514 1.191-.345.135-.74.235-1.113.344-1.434.465-2.325 1.402-2.79 2.826-.18.553-.356 1.113-.589 1.639-.681 1.564-1.737 2.65-3.494 2.88-.359.05-.768.12-1.158.12"/></g><g><path fill="#ef9f5e" d="M107.064 73c-.784-.056-1.334 0-1.877-.166-.828-.237-1.187-.671-1.187-1.545 0-1.047.364-1.95 1-2.773.307-.458.677-.892 1-1.328.735-.82 1-1.726.653-2.772a44.91 44.91 0 0 0-.779-2.055c-.41-1.053-.375-2.11-.03-3.165.156-.407.424-.6.834-.784.76-.34 1.52-.412 2.322-.412.77 0 1.444.224 2.066.653.427.295.668.707.784 1.2.15.787.15 1.583-.024 2.355-.304 1.297-.19 2.57 0 3.867.174 1.265.324 2.547-.132 3.8a4.421 4.421 0 0 1-2.053 2.412c-.87.489-1.784.823-2.577.713"/></g><g><path fill="#2a2c2c" d="M118 23.056c0 1.155-.91 1.944-2.168 1.944-1.033 0-1.832-.853-1.832-1.863 0-1.216.905-2.137 2-2.137 1 0 2 1 2 2.056"/></g><g><path fill="#2e312e" d="M129 31.908c0 .591-.207 1.092-.493 1.092-.285 0-.507-.384-.507-1 0-.519.233-1 .527-1 .27 0 .473.369.473.908"/></g><g><path fill="#f4f4f0" d="M116 21.408c0 .183-.066.31-.143.367-.22.165-.364.46-.451.888-.05.246-.147.418-.29.337-.116-.166-.116-.452-.116-.675.132-.63.352-1.066.667-1.325.179-.088.333.118.333.408"/></g><g><path fill="#ebede9" d="M115.335 23c.318 0 .388.179.486.357.095.173.29.337.096.536-.058.107-.178.107-.27.107a.604.604 0 0 1-.55-.31c-.097-.183-.15-.371-.01-.563.062-.127.157-.127.248-.127"/></g></g></g></svg>